<svg xmlns="http://www.w3.org/2000/svg" xmlns:xlink="http://www.w3.org/1999/xlink" width="1440" height="494.2"><rect width="1440" height="494.2" rx="5" ry="5" class="a"/><svg y="0%" x="0%"><circle cx="20" cy="20" r="6" fill="#ff5f58"/><circle cx="40" cy="20" r="6" fill="#ffbd2e"/><circle cx="60" cy="20" r="6" fill="#18c132"/></svg><svg height="434.2" viewBox="0 0 140 43.42" width="1400" x="15" xmlns="http://www.w3.org/2000/svg" xmlns:xlink="http://www.w3.org/1999/xlink" y="50"><style>@keyframes j{0%{transform:translateX(0)}5.97%{transform:translateX(-140px)}9.09%{transform:translateX(-280px)}9.31%{transform:translateX(-420px)}9.99%{transform:translateX(-560px)}10.14%{transform:translateX(-700px)}10.79%{transform:translateX(-840px)}10.92%{transform:translateX(-980px)}11.67%{transform:translateX(-1120px)}12.24%{transform:translateX(-1260px)}12.62%{transform:translateX(-1400px)}12.83%{transform:translateX(-1540px)}13.11%{transform:translateX(-1680px)}13.61%{transform:translateX(-1820px)}13.94%{transform:translateX(-1960px)}14.35%{transform:translateX(-2100px)}14.86%{transform:translateX(-2240px)}15.27%{transform:translateX(-2380px)}15.61%{transform:translateX(-2520px)}17.97%{transform:translateX(-2660px)}18.17%{transform:translateX(-2800px)}20.32%{transform:translateX(-2940px)}20.73%{transform:translateX(-3080px)}22.02%{transform:translateX(-3220px)}22.25%{transform:translateX(-3360px)}22.79%{transform:translateX(-3500px)}23.28%{transform:translateX(-3640px)}23.59%{transform:translateX(-3780px)}23.93%{transform:translateX(-3920px)}26.38%{transform:translateX(-4060px)}30.38%{transform:translateX(-4200px)}32.86%{transform:translateX(-4480px)}33.03%{transform:translateX(-4620px)}38.2%{transform:translateX(-4760px)}38.41%{transform:translateX(-4900px)}39.47%{transform:translateX(-5040px)}39.65%{transform:translateX(-5180px)}40.35%{transform:translateX(-5320px)}40.48%{transform:translateX(-5460px)}41.04%{transform:translateX(-5600px)}41.89%{transform:translateX(-5740px)}42.1%{transform:translateX(-5880px)}42.85%{transform:translateX(-6020px)}43.31%{transform:translateX(-6160px)}49.02%{transform:translateX(-6300px)}52.12%{transform:translateX(-6440px)}53.47%{transform:translateX(-7420px)}53.64%{transform:translateX(-7560px)}58.54%{transform:translateX(-7700px)}58.75%{transform:translateX(-7840px)}59.34%{transform:translateX(-7980px)}59.53%{transform:translateX(-8120px)}60.16%{transform:translateX(-8260px)}60.33%{transform:translateX(-8400px)}63.27%{transform:translateX(-8540px)}65.1%{transform:translateX(-8680px)}65.33%{transform:translateX(-8820px)}66.03%{transform:translateX(-8960px)}66.62%{transform:translateX(-9100px)}70.58%{transform:translateX(-9240px)}73.39%{transform:translateX(-9380px)}75.14%{transform:translateX(-9520px)}75.76%{transform:translateX(-9660px)}76.64%{transform:translateX(-9800px)}77.05%{transform:translateX(-9940px)}77.78%{transform:translateX(-10080px)}78.42%{transform:translateX(-10220px)}79.53%{transform:translateX(-10360px)}80.12%{transform:translateX(-10500px)}81.18%{transform:translateX(-10640px)}82.59%{transform:translateX(-10780px)}82.77%{transform:translateX(-10920px)}to{transform:translateX(-11060px)}}.a{fill:#282d35}.f,.g{fill:#b9c0cb;white-space:pre}.g{fill:#a8cc8c;font-weight:700}</style><g font-family="Monaco,Consolas,Menlo,'Bitstream Vera Sans Mono','Powerline Symbols',monospace" font-size="1.67"><defs><symbol id="1"><text y="1.67" class="f">$</text></symbol><symbol id="2"><text y="1.67" class="f">$</text><text x="2.004" y="1.67" class="f">.</text></symbol><symbol id="3"><text y="1.67" class="f">$</text><text x="2.004" y="1.67" class="f">./</text></symbol><symbol id="4"><text y="1.67" class="f">$</text><text x="2.004" y="1.67" class="f">./s</text></symbol><symbol id="5"><text y="1.67" class="f">$</text><text x="2.004" y="1.67" class="f">./sa</text></symbol><symbol id="6"><text y="1.67" class="f">$</text><text x="2.004" y="1.67" class="f">./saf</text></symbol><symbol id="7"><text y="1.67" class="f">$</text><text x="2.004" y="1.67" class="f">./safe</text></symbol><symbol id="8"><text y="1.67" class="f">$</text><text x="2.004" y="1.67" class="f">./safe</text><text x="9.018" y="1.67" class="f">files</text></symbol><symbol id="9"><text y="1.67" class="f">$</text><text x="2.004" y="1.67" class="f">./safe</text><text x="9.018" y="1.67" class="f">files</text><text x="15.03" y="1.67" class="f">put</text></symbol><symbol id="10"><text y="1.67" class="f">$</text><text x="2.004" y="1.67" class="f">./safe</text><text x="9.018" y="1.67" class="f">files</text><text x="15.03" y="1.67" class="f">put</text><text x="19.038" y="1.67" class="f">./myfolder/</text></symbol><symbol id="11"><text y="1.67" class="f">FilesContainer</text><text x="15.03" y="1.67" class="f">created</text><text x="23.046" y="1.67" class="f">at:</text><text x="27.054" y="1.67" class="f">&quot;safe://hnyynysaon66ouibmtoi45c8oqwi5fu496awdun8u4f1oqzpnrimdbnxgcbnc&quot;</text></symbol><symbol id="12"><text y="1.67" class="f">+</text><text x="3.006" y="1.67" class="f">./myfolder/another.md</text><text x="26.052" y="1.67" class="f">safe://hbhyrydt5b95dmumcm8yig4u1keuuh8hgsr5yx39xn4mqikp91sbdhbpwp</text></symbol><symbol id="13"><text y="1.67" class="f">+</text><text x="3.006" y="1.67" class="f">./myfolder/hello.md</text><text x="26.052" y="1.67" class="f">safe://hbhyrydwfxb39y6q3i8neae5fdqywbyfw9cskmqdgqkyh1xogo9pqym3hf</text></symbol><symbol id="14"><text y="1.67" class="f">$</text><text x="2.004" y="1.67" class="f">./safe</text><text x="9.018" y="1.67" class="f">c</text></symbol><symbol id="15"><text y="1.67" class="f">$</text><text x="2.004" y="1.67" class="f">./safe</text><text x="9.018" y="1.67" class="f">ca</text></symbol><symbol id="16"><text y="1.67" class="f">$</text><text x="2.004" y="1.67" class="f">./safe</text><text x="9.018" y="1.67" class="f">cat</text></symbol><symbol id="17"><text y="1.67" class="f">$</text><text x="2.004" y="1.67" class="f">./safe</text><text x="9.018" y="1.67" class="f">cat</text><text x="13.026" y="1.67" class="f">safe://hnyynysaon66ouibmtoi45c8oqwi5fu496awdun8u4f1oqzpnrimdbnxgcbnc</text></symbol><symbol id="18"><text y="1.67" class="f">Files</text><text x="6.012" y="1.67" class="f">of</text><text x="9.018" y="1.67" class="f">FilesContainer</text><text x="24.048" y="1.67" class="f">(version</text><text x="33.066" y="1.67" class="f">0)</text><text x="36.072" y="1.67" class="f">at</text><text x="39.078" y="1.67" class="f">&quot;safe://hnyynysaon66ouibmtoi45c8oqwi5fu496awdun8u4f1oqzpnrimdbnxgcbnc&quot;:</text></symbol><symbol id="19"><text y="1.67" class="f">+-------------+------+----------------------+----------------------+-------------------------------------------------------------------+</text></symbol><symbol id="20"><text y="1.67" class="f">|</text><text x="2.004" y="1.67" class="g">Name</text><text x="14.028" y="1.67" class="f">|</text><text x="16.032" y="1.67" class="g">Size</text><text x="21.042" y="1.67" class="f">|</text><text x="23.046" y="1.67" class="g">Created</text><text x="44.088" y="1.67" class="f">|</text><text x="46.092" y="1.67" class="g">Modified</text><text x="67.134" y="1.67" class="f">|</text><text x="69.138" y="1.67" class="g">Link</text><text x="135.27" y="1.67" class="f">|</text></symbol><symbol id="21"><text y="1.67" class="f">|</text><text x="2.004" y="1.67" class="f">/another.md</text><text x="14.028" y="1.67" class="f">|</text><text x="16.032" y="1.67" class="f">6</text><text x="21.042" y="1.67" class="f">|</text><text x="23.046" y="1.67" class="f">2019-11-13T19:08:50Z</text><text x="44.088" y="1.67" class="f">|</text><text x="46.092" y="1.67" class="f">2019-11-13T19:08:50Z</text><text x="67.134" y="1.67" class="f">|</text><text x="69.138" y="1.67" class="f">safe://hbhyrydt5b95dmumcm8yig4u1keuuh8hgsr5yx39xn4mqikp91sbdhbpwp</text><text x="135.27" y="1.67" class="f">|</text></symbol><symbol id="22"><text y="1.67" class="f">|</text><text x="2.004" y="1.67" class="f">/hello.md</text><text x="14.028" y="1.67" class="f">|</text><text x="16.032" y="1.67" class="f">13</text><text x="21.042" y="1.67" class="f">|</text><text x="23.046" y="1.67" class="f">2019-11-13T19:08:50Z</text><text x="44.088" y="1.67" class="f">|</text><text x="46.092" y="1.67" class="f">2019-11-13T19:08:50Z</text><text x="67.134" y="1.67" class="f">|</text><text x="69.138" y="1.67" class="f">safe://hbhyrydwfxb39y6q3i8neae5fdqywbyfw9cskmqdgqkyh1xogo9pqym3hf</text><text x="135.27" y="1.67" class="f">|</text></symbol><symbol id="23"><text y="1.67" class="f">$</text><text x="2.004" y="1.67" class="f">./safe</text><text x="9.018" y="1.67" class="f">cat</text><text x="13.026" y="1.67" class="f">safe://hnyynysaon66ouibmtoi45c8oqwi5fu496awdun8u4f1oqzpnrimdbnxgcbnc/hello.md</text></symbol><symbol id="24"><text y="1.67" class="f">Hello</text><text x="6.012" y="1.67" class="f">SAFE!</text></symbol><symbol id="a"><path fill="transparent" d="M0 0h140v20H0z"/></symbol><symbol id="b"><path fill="#6f7683" d="M0 0h1.102v2.171H0z"/></symbol></defs><path class="a" d="M0 0h140v43.42H0z"/><g style="animation-duration:30.993516s;animation-iteration-count:infinite;animation-name:j;animation-timing-function:steps(1,end)"><svg width="11200"><svg><use xlink:href="#a"/><use xlink:href="#b" x="-.004"/></svg><svg x="140"><use xlink:href="#a"/><use xlink:href="#b" x="1.996"/><use xlink:href="#1"/></svg><svg x="280"><use xlink:href="#a"/><use xlink:href="#b" x="2.996"/><use xlink:href="#2"/></svg><svg x="420"><use xlink:href="#a"/><use xlink:href="#b" x="3.996"/><use xlink:href="#3"/></svg><svg x="560"><use xlink:href="#a"/><use xlink:href="#b" x="4.996"/><use xlink:href="#4"/></svg><svg x="700"><use xlink:href="#a"/><use xlink:href="#b" x="5.996"/><use xlink:href="#5"/></svg><svg x="840"><use xlink:href="#a"/><use xlink:href="#b" x="6.996"/><use xlink:href="#6"/></svg><svg x="980"><use xlink:href="#a"/><use xlink:href="#b" x="7.996"/><use xlink:href="#7"/></svg><svg x="1120"><use xlink:href="#a"/><use xlink:href="#b" x="8.996"/><use xlink:href="#7"/></svg><svg x="1260"><use xlink:href="#a"/><use xlink:href="#b" x="9.996"/><text y="1.67" class="f">$</text><text x="2.004" y="1.67" class="f">./safe</text><text x="9.018" y="1.67" class="f">f</text></svg><svg x="1400"><use xlink:href="#a"/><use xlink:href="#b" x="10.996"/><text y="1.67" class="f">$</text><text x="2.004" y="1.67" class="f">./safe</text><text x="9.018" y="1.67" class="f">fi</text></svg><svg x="1540"><use xlink:href="#a"/><use xlink:href="#b" x="11.996"/><text y="1.67" class="f">$</text><text x="2.004" y="1.67" class="f">./safe</text><text x="9.018" y="1.67" class="f">fil</text></svg><svg x="1680"><use xlink:href="#a"/><use xlink:href="#b" x="12.996"/><text y="1.67" class="f">$</text><text x="2.004" y="1.67" class="f">./safe</text><text x="9.018" y="1.67" class="f">file</text></svg><svg x="1820"><use xlink:href="#a"/><use xlink:href="#b" x="13.996"/><use xlink:href="#8"/></svg><svg x="1960"><use xlink:href="#a"/><use xlink:href="#b" x="14.996"/><use xlink:href="#8"/></svg><svg x="2100"><use xlink:href="#a"/><use xlink:href="#b" x="15.996"/><text y="1.67" class="f">$</text><text x="2.004" y="1.67" class="f">./safe</text><text x="9.018" y="1.67" class="f">files</text><text x="15.03" y="1.67" class="f">p</text></svg><svg x="2240"><use xlink:href="#a"/><use xlink:href="#b" x="16.996"/><text y="1.67" class="f">$</text><text x="2.004" y="1.67" class="f">./safe</text><text x="9.018" y="1.67" class="f">files</text><text x="15.03" y="1.67" class="f">pu</text></svg><svg x="2380"><use xlink:href="#a"/><use xlink:href="#b" x="17.996"/><use xlink:href="#9"/></svg><svg x="2520"><use xlink:href="#a"/><use xlink:href="#b" x="18.996"/><use xlink:href="#9"/></svg><svg x="2660"><use xlink:href="#a"/><use xlink:href="#b" x="19.996"/><text y="1.67" class="f">$</text><text x="2.004" y="1.67" class="f">./safe</text><text x="9.018" y="1.67" class="f">files</text><text x="15.03" y="1.67" class="f">put</text><text x="19.038" y="1.67" class="f">.</text></svg><svg x="2800"><use xlink:href="#a"/><use xlink:href="#b" x="20.996"/><text y="1.67" class="f">$</text><text x="2.004" y="1.67" class="f">./safe</text><text x="9.018" y="1.67" class="f">files</text><text x="15.03" y="1.67" class="f">put</text><text x="19.038" y="1.67" class="f">./</text></svg><svg x="2940"><use xlink:href="#a"/><use xlink:href="#b" x="21.996"/><text y="1.67" class="f">$</text><text x="2.004" y="1.67" class="f">./safe</text><text x="9.018" y="1.67" class="f">files</text><text x="15.03" y="1.67" class="f">put</text><text x="19.038" y="1.67" class="f">./m</text></svg><svg x="3080"><use xlink:href="#a"/><use xlink:href="#b" x="22.996"/><text y="1.67" class="f">$</text><text x="2.004" y="1.67" class="f">./safe</text><text x="9.018" y="1.67" class="f">files</text><text x="15.03" y="1.67" class="f">put</text><text x="19.038" y="1.67" class="f">./my</text></svg><svg x="3220"><use xlink:href="#a"/><use xlink:href="#b" x="23.996"/><text y="1.67" class="f">$</text><text x="2.004" y="1.67" class="f">./safe</text><text x="9.018" y="1.67" class="f">files</text><text x="15.03" y="1.67" class="f">put</text><text x="19.038" y="1.67" class="f">./myf</text></svg><svg x="3360"><use xlink:href="#a"/><use xlink:href="#b" x="24.996"/><text y="1.67" class="f">$</text><text x="2.004" y="1.67" class="f">./safe</text><text x="9.018" y="1.67" class="f">files</text><text x="15.03" y="1.67" class="f">put</text><text x="19.038" y="1.67" class="f">./myfo</text></svg><svg x="3500"><use xlink:href="#a"/><use xlink:href="#b" x="25.996"/><text y="1.67" class="f">$</text><text x="2.004" y="1.67" class="f">./safe</text><text x="9.018" y="1.67" class="f">files</text><text x="15.03" y="1.67" class="f">put</text><text x="19.038" y="1.67" class="f">./myfol</text></svg><svg x="3640"><use xlink:href="#a"/><use xlink:href="#b" x="26.996"/><text y="1.67" class="f">$</text><text x="2.004" y="1.67" class="f">./safe</text><text x="9.018" y="1.67" class="f">files</text><text x="15.03" y="1.67" class="f">put</text><text x="19.038" y="1.67" class="f">./myfold</text></svg><svg x="3780"><use xlink:href="#a"/><use xlink:href="#b" x="27.996"/><text y="1.67" class="f">$</text><text x="2.004" y="1.67" class="f">./safe</text><text x="9.018" y="1.67" class="f">files</text><text x="15.03" y="1.67" class="f">put</text><text x="19.038" y="1.67" class="f">./myfolde</text></svg><svg x="3920"><use xlink:href="#a"/><use xlink:href="#b" x="28.996"/><text y="1.67" class="f">$</text><text x="2.004" y="1.67" class="f">./safe</text><text x="9.018" y="1.67" class="f">files</text><text x="15.03" y="1.67" class="f">put</text><text x="19.038" y="1.67" class="f">./myfolder</text></svg><svg x="4060"><use xlink:href="#a"/><use xlink:href="#b" x="29.996"/><use xlink:href="#10"/></svg><svg x="4200"><use xlink:href="#a"/><use xlink:href="#b" x="-.004" y="2.146"/><use xlink:href="#10"/></svg><svg x="4340"><use xlink:href="#a"/><use xlink:href="#b" x="-.004" y="4.317"/><use xlink:href="#10"/><use xlink:href="#11" y="2.171"/></svg><svg x="4480"><use xlink:href="#a"/><use xlink:href="#b" x="-.004" y="8.659"/><use xlink:href="#10"/><use xlink:href="#11" y="2.171"/><use xlink:href="#12" y="4.342"/><use xlink:href="#13" y="6.513"/></svg><svg x="4620"><use xlink:href="#a"/><use xlink:href="#b" x="1.996" y="8.659"/><use xlink:href="#10"/><use xlink:href="#11" y="2.171"/><use xlink:href="#12" y="4.342"/><use xlink:href="#13" y="6.513"/><use xlink:href="#1" y="8.684"/></svg><svg x="4760"><use xlink:href="#a"/><use xlink:href="#b" x="2.996" y="8.659"/><use xlink:href="#10"/><use xlink:href="#11" y="2.171"/><use xlink:href="#12" y="4.342"/><use xlink:href="#13" y="6.513"/><use xlink:href="#2" y="8.684"/></svg><svg x="4900"><use xlink:href="#a"/><use xlink:href="#b" x="3.996" y="8.659"/><use xlink:href="#10"/><use xlink:href="#11" y="2.171"/><use xlink:href="#12" y="4.342"/><use xlink:href="#13" y="6.513"/><use xlink:href="#3" y="8.684"/></svg><svg x="5040"><use xlink:href="#a"/><use xlink:href="#b" x="4.996" y="8.659"/><use xlink:href="#10"/><use xlink:href="#11" y="2.171"/><use xlink:href="#12" y="4.342"/><use xlink:href="#13" y="6.513"/><use xlink:href="#4" y="8.684"/></svg><svg x="5180"><use xlink:href="#a"/><use xlink:href="#b" x="5.996" y="8.659"/><use xlink:href="#10"/><use xlink:href="#11" y="2.171"/><use xlink:href="#12" y="4.342"/><use xlink:href="#13" y="6.513"/><use xlink:href="#5" y="8.684"/></svg><svg x="5320"><use xlink:href="#a"/><use xlink:href="#b" x="6.996" y="8.659"/><use xlink:href="#10"/><use xlink:href="#11" y="2.171"/><use xlink:href="#12" y="4.342"/><use xlink:href="#13" y="6.513"/><use xlink:href="#6" y="8.684"/></svg><svg x="5460"><use xlink:href="#a"/><use xlink:href="#b" x="7.996" y="8.659"/><use xlink:href="#10"/><use xlink:href="#11" y="2.171"/><use xlink:href="#12" y="4.342"/><use xlink:href="#13" y="6.513"/><use xlink:href="#7" y="8.684"/></svg><svg x="5600"><use xlink:href="#a"/><use xlink:href="#b" x="8.996" y="8.659"/><use xlink:href="#10"/><use xlink:href="#11" y="2.171"/><use xlink:href="#12" y="4.342"/><use xlink:href="#13" y="6.513"/><use xlink:href="#7" y="8.684"/></svg><svg x="5740"><use xlink:href="#a"/><use xlink:href="#b" x="9.996" y="8.659"/><use xlink:href="#10"/><use xlink:href="#11" y="2.171"/><use xlink:href="#12" y="4.342"/><use xlink:href="#13" y="6.513"/><use xlink:href="#14" y="8.684"/></svg><svg x="5880"><use xlink:href="#a"/><use xlink:href="#b" x="10.996" y="8.659"/><use xlink:href="#10"/><use xlink:href="#11" y="2.171"/><use xlink:href="#12" y="4.342"/><use xlink:href="#13" y="6.513"/><use xlink:href="#15" y="8.684"/></svg><svg x="6020"><use xlink:href="#a"/><use xlink:href="#b" x="11.996" y="8.659"/><use xlink:href="#10"/><use xlink:href="#11" y="2.171"/><use xlink:href="#12" y="4.342"/><use xlink:href="#13" y="6.513"/><use xlink:href="#16" y="8.684"/></svg><svg x="6160"><use xlink:href="#a"/><use xlink:href="#b" x="12.996" y="8.659"/><use xlink:href="#10"/><use xlink:href="#11" y="2.171"/><use xlink:href="#12" y="4.342"/><use xlink:href="#13" y="6.513"/><use xlink:href="#16" y="8.684"/></svg><svg x="6300"><use xlink:href="#a"/><use xlink:href="#b" x="80.996" y="8.659"/><use xlink:href="#10"/><use xlink:href="#11" y="2.171"/><use xlink:href="#12" y="4.342"/><use xlink:href="#13" y="6.513"/><use xlink:href="#17" y="8.684"/></svg><svg x="6440"><use xlink:href="#a"/><use xlink:href="#b" x="-.004" y="10.83"/><use xlink:href="#10"/><use xlink:href="#11" y="2.171"/><use xlink:href="#12" y="4.342"/><use xlink:href="#13" y="6.513"/><use xlink:href="#17" y="8.684"/></svg><svg x="6580"><use xlink:href="#a"/><use xlink:href="#b" x="-.004" y="13.001"/><use xlink:href="#10"/><use xlink:href="#11" y="2.171"/><use xlink:href="#12" y="4.342"/><use xlink:href="#13" y="6.513"/><use xlink:href="#17" y="8.684"/><use xlink:href="#18" y="10.855"/></svg><svg x="6720"><use xlink:href="#a"/><use xlink:href="#b" x="-.004" y="15.172"/><use xlink:href="#10"/><use xlink:href="#11" y="2.171"/><use xlink:href="#12" y="4.342"/><use xlink:href="#13" y="6.513"/><use xlink:href="#17" y="8.684"/><use xlink:href="#18" y="10.855"/><use xlink:href="#19" y="13.026"/></svg><svg x="6860"><use xlink:href="#a"/><use xlink:href="#b" x="-.004" y="17.343"/><use xlink:href="#10"/><use xlink:href="#11" y="2.171"/><use xlink:href="#12" y="4.342"/><use xlink:href="#13" y="6.513"/><use xlink:href="#17" y="8.684"/><use xlink:href="#18" y="10.855"/><use xlink:href="#19" y="13.026"/><use xlink:href="#20" y="15.197"/></svg><svg x="7000"><use xlink:href="#a"/><use xlink:href="#b" x="-.004" y="19.514"/><use xlink:href="#10"/><use xlink:href="#11" y="2.171"/><use xlink:href="#12" y="4.342"/><use xlink:href="#13" y="6.513"/><use xlink:href="#17" y="8.684"/><use xlink:href="#18" y="10.855"/><use xlink:href="#19" y="13.026"/><use xlink:href="#20" y="15.197"/><use xlink:href="#19" y="17.368"/></svg><svg x="7140"><use xlink:href="#a"/><use xlink:href="#b" x="-.004" y="21.685"/><use xlink:href="#10"/><use xlink:href="#11" y="2.171"/><use xlink:href="#12" y="4.342"/><use xlink:href="#13" y="6.513"/><use xlink:href="#17" y="8.684"/><use xlink:href="#18" y="10.855"/><use xlink:href="#19" y="13.026"/><use xlink:href="#20" y="15.197"/><use xlink:href="#19" y="17.368"/><use xlink:href="#21" y="19.539"/></svg><svg x="7280"><use xlink:href="#a"/><use xlink:href="#b" x="-.004" y="23.856"/><use xlink:href="#10"/><use xlink:href="#11" y="2.171"/><use xlink:href="#12" y="4.342"/><use xlink:href="#13" y="6.513"/><use xlink:href="#17" y="8.684"/><use xlink:href="#18" y="10.855"/><use xlink:href="#19" y="13.026"/><use xlink:href="#20" y="15.197"/><use xlink:href="#19" y="17.368"/><use xlink:href="#21" y="19.539"/><use xlink:href="#19" y="21.71"/></svg><svg x="7420"><use xlink:href="#a"/><use xlink:href="#b" x="-.004" y="28.198"/><use xlink:href="#10"/><use xlink:href="#11" y="2.171"/><use xlink:href="#12" y="4.342"/><use xlink:href="#13" y="6.513"/><use xlink:href="#17" y="8.684"/><use xlink:href="#18" y="10.855"/><use xlink:href="#19" y="13.026"/><use xlink:href="#20" y="15.197"/><use xlink:href="#19" y="17.368"/><use xlink:href="#21" y="19.539"/><use xlink:href="#19" y="21.71"/><use xlink:href="#22" y="23.881"/><use xlink:href="#19" y="26.052"/></svg><svg x="7560"><use xlink:href="#a"/><use xlink:href="#b" x="1.996" y="28.198"/><use xlink:href="#10"/><use xlink:href="#11" y="2.171"/><use xlink:href="#12" y="4.342"/><use xlink:href="#13" y="6.513"/><use xlink:href="#17" y="8.684"/><use xlink:href="#18" y="10.855"/><use xlink:href="#19" y="13.026"/><use xlink:href="#20" y="15.197"/><use xlink:href="#19" y="17.368"/><use xlink:href="#21" y="19.539"/><use xlink:href="#19" y="21.71"/><use xlink:href="#22" y="23.881"/><use xlink:href="#19" y="26.052"/><use xlink:href="#1" y="28.223"/></svg><svg x="7700"><use xlink:href="#a"/><use xlink:href="#b" x="2.996" y="28.198"/><use xlink:href="#10"/><use xlink:href="#11" y="2.171"/><use xlink:href="#12" y="4.342"/><use xlink:href="#13" y="6.513"/><use xlink:href="#17" y="8.684"/><use xlink:href="#18" y="10.855"/><use xlink:href="#19" y="13.026"/><use xlink:href="#20" y="15.197"/><use xlink:href="#19" y="17.368"/><use xlink:href="#21" y="19.539"/><use xlink:href="#19" y="21.71"/><use xlink:href="#22" y="23.881"/><use xlink:href="#19" y="26.052"/><use xlink:href="#2" y="28.223"/></svg><svg x="7840"><use xlink:href="#a"/><use xlink:href="#b" x="3.996" y="28.198"/><use xlink:href="#10"/><use xlink:href="#11" y="2.171"/><use xlink:href="#12" y="4.342"/><use xlink:href="#13" y="6.513"/><use xlink:href="#17" y="8.684"/><use xlink:href="#18" y="10.855"/><use xlink:href="#19" y="13.026"/><use xlink:href="#20" y="15.197"/><use xlink:href="#19" y="17.368"/><use xlink:href="#21" y="19.539"/><use xlink:href="#19" y="21.71"/><use xlink:href="#22" y="23.881"/><use xlink:href="#19" y="26.052"/><use xlink:href="#3" y="28.223"/></svg><svg x="7980"><use xlink:href="#a"/><use xlink:href="#b" x="4.996" y="28.198"/><use xlink:href="#10"/><use xlink:href="#11" y="2.171"/><use xlink:href="#12" y="4.342"/><use xlink:href="#13" y="6.513"/><use xlink:href="#17" y="8.684"/><use xlink:href="#18" y="10.855"/><use xlink:href="#19" y="13.026"/><use xlink:href="#20" y="15.197"/><use xlink:href="#19" y="17.368"/><use xlink:href="#21" y="19.539"/><use xlink:href="#19" y="21.71"/><use xlink:href="#22" y="23.881"/><use xlink:href="#19" y="26.052"/><use xlink:href="#4" y="28.223"/></svg><svg x="8120"><use xlink:href="#a"/><use xlink:href="#b" x="5.996" y="28.198"/><use xlink:href="#10"/><use xlink:href="#11" y="2.171"/><use xlink:href="#12" y="4.342"/><use xlink:href="#13" y="6.513"/><use xlink:href="#17" y="8.684"/><use xlink:href="#18" y="10.855"/><use xlink:href="#19" y="13.026"/><use xlink:href="#20" y="15.197"/><use xlink:href="#19" y="17.368"/><use xlink:href="#21" y="19.539"/><use xlink:href="#19" y="21.71"/><use xlink:href="#22" y="23.881"/><use xlink:href="#19" y="26.052"/><use xlink:href="#5" y="28.223"/></svg><svg x="8260"><use xlink:href="#a"/><use xlink:href="#b" x="6.996" y="28.198"/><use xlink:href="#10"/><use xlink:href="#11" y="2.171"/><use xlink:href="#12" y="4.342"/><use xlink:href="#13" y="6.513"/><use xlink:href="#17" y="8.684"/><use xlink:href="#18" y="10.855"/><use xlink:href="#19" y="13.026"/><use xlink:href="#20" y="15.197"/><use xlink:href="#19" y="17.368"/><use xlink:href="#21" y="19.539"/><use xlink:href="#19" y="21.71"/><use xlink:href="#22" y="23.881"/><use xlink:href="#19" y="26.052"/><use xlink:href="#6" y="28.223"/></svg><svg x="8400"><use xlink:href="#a"/><use xlink:href="#b" x="7.996" y="28.198"/><use xlink:href="#10"/><use xlink:href="#11" y="2.171"/><use xlink:href="#12" y="4.342"/><use xlink:href="#13" y="6.513"/><use xlink:href="#17" y="8.684"/><use xlink:href="#18" y="10.855"/><use xlink:href="#19" y="13.026"/><use xlink:href="#20" y="15.197"/><use xlink:href="#19" y="17.368"/><use xlink:href="#21" y="19.539"/><use xlink:href="#19" y="21.71"/><use xlink:href="#22" y="23.881"/><use xlink:href="#19" y="26.052"/><use xlink:href="#7" y="28.223"/></svg><svg x="8540"><use xlink:href="#a"/><use xlink:href="#b" x="8.996" y="28.198"/><use xlink:href="#10"/><use xlink:href="#11" y="2.171"/><use xlink:href="#12" y="4.342"/><use xlink:href="#13" y="6.513"/><use xlink:href="#17" y="8.684"/><use xlink:href="#18" y="10.855"/><use xlink:href="#19" y="13.026"/><use xlink:href="#20" y="15.197"/><use xlink:href="#19" y="17.368"/><use xlink:href="#21" y="19.539"/><use xlink:href="#19" y="21.71"/><use xlink:href="#22" y="23.881"/><use xlink:href="#19" y="26.052"/><use xlink:href="#7" y="28.223"/></svg><svg x="8680"><use xlink:href="#a"/><use xlink:href="#b" x="9.996" y="28.198"/><use xlink:href="#10"/><use xlink:href="#11" y="2.171"/><use xlink:href="#12" y="4.342"/><use xlink:href="#13" y="6.513"/><use xlink:href="#17" y="8.684"/><use xlink:href="#18" y="10.855"/><use xlink:href="#19" y="13.026"/><use xlink:href="#20" y="15.197"/><use xlink:href="#19" y="17.368"/><use xlink:href="#21" y="19.539"/><use xlink:href="#19" y="21.71"/><use xlink:href="#22" y="23.881"/><use xlink:href="#19" y="26.052"/><use xlink:href="#14" y="28.223"/></svg><svg x="8820"><use xlink:href="#a"/><use xlink:href="#b" x="10.996" y="28.198"/><use xlink:href="#10"/><use xlink:href="#11" y="2.171"/><use xlink:href="#12" y="4.342"/><use xlink:href="#13" y="6.513"/><use xlink:href="#17" y="8.684"/><use xlink:href="#18" y="10.855"/><use xlink:href="#19" y="13.026"/><use xlink:href="#20" y="15.197"/><use xlink:href="#19" y="17.368"/><use xlink:href="#21" y="19.539"/><use xlink:href="#19" y="21.71"/><use xlink:href="#22" y="23.881"/><use xlink:href="#19" y="26.052"/><use xlink:href="#15" y="28.223"/></svg><svg x="8960"><use xlink:href="#a"/><use xlink:href="#b" x="11.996" y="28.198"/><use xlink:href="#10"/><use xlink:href="#11" y="2.171"/><use xlink:href="#12" y="4.342"/><use xlink:href="#13" y="6.513"/><use xlink:href="#17" y="8.684"/><use xlink:href="#18" y="10.855"/><use xlink:href="#19" y="13.026"/><use xlink:href="#20" y="15.197"/><use xlink:href="#19" y="17.368"/><use xlink:href="#21" y="19.539"/><use xlink:href="#19" y="21.71"/><use xlink:href="#22" y="23.881"/><use xlink:href="#19" y="26.052"/><use xlink:href="#16" y="28.223"/></svg><svg x="9100"><use xlink:href="#a"/><use xlink:href="#b" x="12.996" y="28.198"/><use xlink:href="#10"/><use xlink:href="#11" y="2.171"/><use xlink:href="#12" y="4.342"/><use xlink:href="#13" y="6.513"/><use xlink:href="#17" y="8.684"/><use xlink:href="#18" y="10.855"/><use xlink:href="#19" y="13.026"/><use xlink:href="#20" y="15.197"/><use xlink:href="#19" y="17.368"/><use xlink:href="#21" y="19.539"/><use xlink:href="#19" y="21.71"/><use xlink:href="#22" y="23.881"/><use xlink:href="#19" y="26.052"/><use xlink:href="#16" y="28.223"/></svg><svg x="9240"><use xlink:href="#a"/><use xlink:href="#b" x="80.996" y="28.198"/><use xlink:href="#10"/><use xlink:href="#11" y="2.171"/><use xlink:href="#12" y="4.342"/><use xlink:href="#13" y="6.513"/><use xlink:href="#17" y="8.684"/><use xlink:href="#18" y="10.855"/><use xlink:href="#19" y="13.026"/><use xlink:href="#20" y="15.197"/><use xlink:href="#19" y="17.368"/><use xlink:href="#21" y="19.539"/><use xlink:href="#19" y="21.71"/><use xlink:href="#22" y="23.881"/><use xlink:href="#19" y="26.052"/><use xlink:href="#17" y="28.223"/></svg><svg x="9380"><use xlink:href="#a"/><use xlink:href="#b" x="81.996" y="28.198"/><use xlink:href="#10"/><use xlink:href="#11" y="2.171"/><use xlink:href="#12" y="4.342"/><use xlink:href="#13" y="6.513"/><use xlink:href="#17" y="8.684"/><use xlink:href="#18" y="10.855"/><use xlink:href="#19" y="13.026"/><use xlink:href="#20" y="15.197"/><use xlink:href="#19" y="17.368"/><use xlink:href="#21" y="19.539"/><use xlink:href="#19" y="21.71"/><use xlink:href="#22" y="23.881"/><use xlink:href="#19" y="26.052"/><text y="29.893" class="f">$</text><text x="2.004" y="29.893" class="f">./safe</text><text x="9.018" y="29.893" class="f">cat</text><text x="13.026" y="29.893" class="f">safe://hnyynysaon66ouibmtoi45c8oqwi5fu496awdun8u4f1oqzpnrimdbnxgcbnc/</text></svg><svg x="9520"><use xlink:href="#a"/><use xlink:href="#b" x="82.996" y="28.198"/><use xlink:href="#10"/><use xlink:href="#11" y="2.171"/><use xlink:href="#12" y="4.342"/><use xlink:href="#13" y="6.513"/><use xlink:href="#17" y="8.684"/><use xlink:href="#18" y="10.855"/><use xlink:href="#19" y="13.026"/><use xlink:href="#20" y="15.197"/><use xlink:href="#19" y="17.368"/><use xlink:href="#21" y="19.539"/><use xlink:href="#19" y="21.71"/><use xlink:href="#22" y="23.881"/><use xlink:href="#19" y="26.052"/><text y="29.893" class="f">$</text><text x="2.004" y="29.893" class="f">./safe</text><text x="9.018" y="29.893" class="f">cat</text><text x="13.026" y="29.893" class="f">safe://hnyynysaon66ouibmtoi45c8oqwi5fu496awdun8u4f1oqzpnrimdbnxgcbnc/h</text></svg><svg x="9660"><use xlink:href="#a"/><use xlink:href="#b" x="83.996" y="28.198"/><use xlink:href="#10"/><use xlink:href="#11" y="2.171"/><use xlink:href="#12" y="4.342"/><use xlink:href="#13" y="6.513"/><use xlink:href="#17" y="8.684"/><use xlink:href="#18" y="10.855"/><use xlink:href="#19" y="13.026"/><use xlink:href="#20" y="15.197"/><use xlink:href="#19" y="17.368"/><use xlink:href="#21" y="19.539"/><use xlink:href="#19" y="21.71"/><use xlink:href="#22" y="23.881"/><use xlink:href="#19" y="26.052"/><text y="29.893" class="f">$</text><text x="2.004" y="29.893" class="f">./safe</text><text x="9.018" y="29.893" class="f">cat</text><text x="13.026" y="29.893" class="f">safe://hnyynysaon66ouibmtoi45c8oqwi5fu496awdun8u4f1oqzpnrimdbnxgcbnc/he</text></svg><svg x="9800"><use xlink:href="#a"/><use xlink:href="#b" x="84.996" y="28.198"/><use xlink:href="#10"/><use xlink:href="#11" y="2.171"/><use xlink:href="#12" y="4.342"/><use xlink:href="#13" y="6.513"/><use xlink:href="#17" y="8.684"/><use xlink:href="#18" y="10.855"/><use xlink:href="#19" y="13.026"/><use xlink:href="#20" y="15.197"/><use xlink:href="#19" y="17.368"/><use xlink:href="#21" y="19.539"/><use xlink:href="#19" y="21.71"/><use xlink:href="#22" y="23.881"/><use xlink:href="#19" y="26.052"/><text y="29.893" class="f">$</text><text x="2.004" y="29.893" class="f">./safe</text><text x="9.018" y="29.893" class="f">cat</text><text x="13.026" y="29.893" class="f">safe://hnyynysaon66ouibmtoi45c8oqwi5fu496awdun8u4f1oqzpnrimdbnxgcbnc/hel</text></svg><svg x="9940"><use xlink:href="#a"/><use xlink:href="#b" x="85.996" y="28.198"/><use xlink:href="#10"/><use xlink:href="#11" y="2.171"/><use xlink:href="#12" y="4.342"/><use xlink:href="#13" y="6.513"/><use xlink:href="#17" y="8.684"/><use xlink:href="#18" y="10.855"/><use xlink:href="#19" y="13.026"/><use xlink:href="#20" y="15.197"/><use xlink:href="#19" y="17.368"/><use xlink:href="#21" y="19.539"/><use xlink:href="#19" y="21.71"/><use xlink:href="#22" y="23.881"/><use xlink:href="#19" y="26.052"/><text y="29.893" class="f">$</text><text x="2.004" y="29.893" class="f">./safe</text><text x="9.018" y="29.893" class="f">cat</text><text x="13.026" y="29.893" class="f">safe://hnyynysaon66ouibmtoi45c8oqwi5fu496awdun8u4f1oqzpnrimdbnxgcbnc/hell</text></svg><svg x="10080"><use xlink:href="#a"/><use xlink:href="#b" x="86.996" y="28.198"/><use xlink:href="#10"/><use xlink:href="#11" y="2.171"/><use xlink:href="#12" y="4.342"/><use xlink:href="#13" y="6.513"/><use xlink:href="#17" y="8.684"/><use xlink:href="#18" y="10.855"/><use xlink:href="#19" y="13.026"/><use xlink:href="#20" y="15.197"/><use xlink:href="#19" y="17.368"/><use xlink:href="#21" y="19.539"/><use xlink:href="#19" y="21.71"/><use xlink:href="#22" y="23.881"/><use xlink:href="#19" y="26.052"/><text y="29.893" class="f">$</text><text x="2.004" y="29.893" class="f">./safe</text><text x="9.018" y="29.893" class="f">cat</text><text x="13.026" y="29.893" class="f">safe://hnyynysaon66ouibmtoi45c8oqwi5fu496awdun8u4f1oqzpnrimdbnxgcbnc/hello</text></svg><svg x="10220"><use xlink:href="#a"/><use xlink:href="#b" x="87.996" y="28.198"/><use xlink:href="#10"/><use xlink:href="#11" y="2.171"/><use xlink:href="#12" y="4.342"/><use xlink:href="#13" y="6.513"/><use xlink:href="#17" y="8.684"/><use xlink:href="#18" y="10.855"/><use xlink:href="#19" y="13.026"/><use xlink:href="#20" y="15.197"/><use xlink:href="#19" y="17.368"/><use xlink:href="#21" y="19.539"/><use xlink:href="#19" y="21.71"/><use xlink:href="#22" y="23.881"/><use xlink:href="#19" y="26.052"/><text y="29.893" class="f">$</text><text x="2.004" y="29.893" class="f">./safe</text><text x="9.018" y="29.893" class="f">cat</text><text x="13.026" y="29.893" class="f">safe://hnyynysaon66ouibmtoi45c8oqwi5fu496awdun8u4f1oqzpnrimdbnxgcbnc/hello.</text></svg><svg x="10360"><use xlink:href="#a"/><use xlink:href="#b" x="88.996" y="28.198"/><use xlink:href="#10"/><use xlink:href="#11" y="2.171"/><use xlink:href="#12" y="4.342"/><use xlink:href="#13" y="6.513"/><use xlink:href="#17" y="8.684"/><use xlink:href="#18" y="10.855"/><use xlink:href="#19" y="13.026"/><use xlink:href="#20" y="15.197"/><use xlink:href="#19" y="17.368"/><use xlink:href="#21" y="19.539"/><use xlink:href="#19" y="21.71"/><use xlink:href="#22" y="23.881"/><use xlink:href="#19" y="26.052"/><text y="29.893" class="f">$</text><text x="2.004" y="29.893" class="f">./safe</text><text x="9.018" y="29.893" class="f">cat</text><text x="13.026" y="29.893" class="f">safe://hnyynysaon66ouibmtoi45c8oqwi5fu496awdun8u4f1oqzpnrimdbnxgcbnc/hello.m</text></svg><svg x="10500"><use xlink:href="#a"/><use xlink:href="#b" x="89.996" y="28.198"/><use xlink:href="#10"/><use xlink:href="#11" y="2.171"/><use xlink:href="#12" y="4.342"/><use xlink:href="#13" y="6.513"/><use xlink:href="#17" y="8.684"/><use xlink:href="#18" y="10.855"/><use xlink:href="#19" y="13.026"/><use xlink:href="#20" y="15.197"/><use xlink:href="#19" y="17.368"/><use xlink:href="#21" y="19.539"/><use xlink:href="#19" y="21.71"/><use xlink:href="#22" y="23.881"/><use xlink:href="#19" y="26.052"/><use xlink:href="#23" y="28.223"/></svg><svg x="10640"><use xlink:href="#a"/><use xlink:href="#b" x="-.004" y="30.369"/><use xlink:href="#10"/><use xlink:href="#11" y="2.171"/><use xlink:href="#12" y="4.342"/><use xlink:href="#13" y="6.513"/><use xlink:href="#17" y="8.684"/><use xlink:href="#18" y="10.855"/><use xlink:href="#19" y="13.026"/><use xlink:href="#20" y="15.197"/><use xlink:href="#19" y="17.368"/><use xlink:href="#21" y="19.539"/><use xlink:href="#19" y="21.71"/><use xlink:href="#22" y="23.881"/><use xlink:href="#19" y="26.052"/><use xlink:href="#23" y="28.223"/></svg><svg x="10780"><use xlink:href="#a"/><use xlink:href="#b" x="-.004" y="34.711"/><use xlink:href="#10"/><use xlink:href="#11" y="2.171"/><use xlink:href="#12" y="4.342"/><use xlink:href="#13" y="6.513"/><use xlink:href="#17" y="8.684"/><use xlink:href="#18" y="10.855"/><use xlink:href="#19" y="13.026"/><use xlink:href="#20" y="15.197"/><use xlink:href="#19" y="17.368"/><use xlink:href="#21" y="19.539"/><use xlink:href="#19" y="21.71"/><use xlink:href="#22" y="23.881"/><use xlink:href="#19" y="26.052"/><use xlink:href="#23" y="28.223"/><use xlink:href="#24" y="30.394"/></svg><svg x="10920"><use xlink:href="#a"/><use xlink:href="#b" x="1.996" y="34.711"/><use xlink:href="#10"/><use xlink:href="#11" y="2.171"/><use xlink:href="#12" y="4.342"/><use xlink:href="#13" y="6.513"/><use xlink:href="#17" y="8.684"/><use xlink:href="#18" y="10.855"/><use xlink:href="#19" y="13.026"/><use xlink:href="#20" y="15.197"/><use xlink:href="#19" y="17.368"/><use xlink:href="#21" y="19.539"/><use xlink:href="#19" y="21.71"/><use xlink:href="#22" y="23.881"/><use xlink:href="#19" y="26.052"/><use xlink:href="#23" y="28.223"/><use xlink:href="#24" y="30.394"/><use xlink:href="#1" y="34.736"/></svg><svg x="11060"><use xlink:href="#a"/><use xlink:href="#b" x="-.004" y="36.882"/><use xlink:href="#10"/><use xlink:href="#11" y="2.171"/><use xlink:href="#12" y="4.342"/><use xlink:href="#13" y="6.513"/><use xlink:href="#17" y="8.684"/><use xlink:href="#18" y="10.855"/><use xlink:href="#19" y="13.026"/><use xlink:href="#20" y="15.197"/><use xlink:href="#19" y="17.368"/><use xlink:href="#21" y="19.539"/><use xlink:href="#19" y="21.71"/><use xlink:href="#22" y="23.881"/><use xlink:href="#19" y="26.052"/><use xlink:href="#23" y="28.223"/><use xlink:href="#24" y="30.394"/><text y="36.406" class="f">$</text><text x="2.004" y="36.406" class="f">exit</text></svg></svg></g></g></svg></svg>